<svg width="24" height="24" viewBox="0 0 24 24" fill="none" xmlns="http://www.w3.org/2000/svg">
<path d="M17.8499 16.4399C17.9445 16.5337 17.9978 16.6615 17.9978 16.7949C17.9978 16.9282 17.9445 17.056 17.8499 17.1499L17.1499 17.8499C17.056 17.9445 16.9282 17.9978 16.7949 17.9978C16.6615 17.9978 16.5337 17.9445 16.4399 17.8499L11.9999 13.4099L7.55985 17.8499C7.46597 17.9445 7.33817 17.9978 7.20485 17.9978C7.07153 17.9978 6.94374 17.9445 6.84985 17.8499L6.14985 17.1499C6.0552 17.056 6.00195 16.9282 6.00195 16.7949C6.00195 16.6615 6.0552 16.5337 6.14985 16.4399L10.5899 11.9999L6.14985 7.55985C6.0552 7.46597 6.00195 7.33817 6.00195 7.20485C6.00195 7.07153 6.0552 6.94374 6.14985 6.84985L6.84985 6.14985C6.94374 6.0552 7.07153 6.00195 7.20485 6.00195C7.33817 6.00195 7.46597 6.0552 7.55985 6.14985L11.9999 10.5899L16.4399 6.14985C16.5337 6.0552 16.6615 6.00195 16.7949 6.00195C16.9282 6.00195 17.056 6.0552 17.1499 6.14985L17.8499 6.84985C17.9445 6.94374 17.9978 7.07153 17.9978 7.20485C17.9978 7.33817 17.9445 7.46597 17.8499 7.55985L13.4099 11.9999L17.8499 16.4399Z" fill="black"/>
</svg>
