<svg width="25" height="24" viewBox="0 0 25 24" fill="none" xmlns="http://www.w3.org/2000/svg">
<path fill-rule="evenodd" clip-rule="evenodd" d="M14.1347 20.7275V12.7662H16.8581L17.2666 9.66268H14.1347V7.6815C14.1347 6.78323 14.388 6.17107 15.7027 6.17107L17.3769 6.1704V3.39446C17.0874 3.35756 16.0935 3.27295 14.9368 3.27295C12.5215 3.27295 10.8679 4.71903 10.8679 7.37413V9.66268H8.13623V12.7662H10.8679V20.7275H14.1347Z" fill="#FFED00"/>
<mask id="mask0_42_497" style="mask-type:luminance" maskUnits="userSpaceOnUse" x="8" y="3" width="10" height="18">
<path fill-rule="evenodd" clip-rule="evenodd" d="M14.1347 20.7275V12.7662H16.8581L17.2666 9.66268H14.1347V7.6815C14.1347 6.78323 14.388 6.17107 15.7027 6.17107L17.3769 6.1704V3.39446C17.0874 3.35756 16.0935 3.27295 14.9368 3.27295C12.5215 3.27295 10.8679 4.71903 10.8679 7.37413V9.66268H8.13623V12.7662H10.8679V20.7275H14.1347Z" fill="white"/>
</mask>
<g mask="url(#mask0_42_497)">
</g>
</svg>
