<svg width="48" height="48" viewBox="0 0 48 48" fill="none" xmlns="http://www.w3.org/2000/svg">
<rect width="48" height="48" rx="24" fill="#FFED00"/>
<g clip-path="url(#clip0_32_164)">
<path d="M17 29C17 29.5304 17.2107 30.0391 17.5858 30.4142C17.9609 30.7893 18.4696 31 19 31C19.5304 31 20.0391 30.7893 20.4142 30.4142C20.7893 30.0391 21 29.5304 21 29C21 28.4696 20.7893 27.9609 20.4142 27.5858C20.0391 27.2107 19.5304 27 19 27C18.4696 27 17.9609 27.2107 17.5858 27.5858C17.2107 27.9609 17 28.4696 17 29Z" stroke="black" stroke-width="1.5" stroke-linecap="round" stroke-linejoin="round"/>
<path d="M27 29C27 29.5304 27.2107 30.0391 27.5858 30.4142C27.9609 30.7893 28.4696 31 29 31C29.5304 31 30.0391 30.7893 30.4142 30.4142C30.7893 30.0391 31 29.5304 31 29C31 28.4696 30.7893 27.9609 30.4142 27.5858C30.0391 27.2107 29.5304 27 29 27C28.4696 27 27.9609 27.2107 27.5858 27.5858C27.2107 27.9609 27 28.4696 27 29Z" stroke="black" stroke-width="1.5" stroke-linecap="round" stroke-linejoin="round"/>
<path d="M17 29H15V25M14 17H25V29M21 29H27M31 29H33V23M33 23H25M33 23L30 18H25" stroke="black" stroke-width="1.5" stroke-linecap="round" stroke-linejoin="round"/>
<path d="M15 21H19" stroke="black" stroke-width="1.5" stroke-linecap="round" stroke-linejoin="round"/>
</g>
<defs>
<clipPath id="clip0_32_164">
<rect width="24" height="24" fill="white" transform="translate(12 12)"/>
</clipPath>
</defs>
</svg>
