<svg width="25" height="24" viewBox="0 0 25 24" fill="none" xmlns="http://www.w3.org/2000/svg">
<path d="M13.5281 2.00123C14.2578 1.99843 14.9876 2.00576 15.7171 2.02323L15.9111 2.03023C16.1351 2.03823 16.3561 2.04823 16.6231 2.06023C17.6871 2.11023 18.4131 2.27823 19.0501 2.52523C19.7101 2.77923 20.2661 3.12323 20.8221 3.67923C21.3305 4.17884 21.7239 4.78318 21.9751 5.45023C22.2221 6.08723 22.3901 6.81423 22.4401 7.87823C22.4521 8.14423 22.4621 8.36623 22.4701 8.59023L22.4761 8.78423C22.4939 9.51342 22.5015 10.2428 22.4991 10.9722L22.5001 11.7182V13.0282C22.5026 13.758 22.4949 14.4877 22.4771 15.2172L22.4711 15.4112C22.4631 15.6352 22.4531 15.8562 22.4411 16.1232C22.3911 17.1872 22.2211 17.9132 21.9751 18.5502C21.7247 19.218 21.3312 19.8228 20.8221 20.3222C20.3221 20.8306 19.7174 21.224 19.0501 21.4752C18.4131 21.7222 17.6871 21.8902 16.6231 21.9402C16.3561 21.9522 16.1351 21.9622 15.9111 21.9702L15.7171 21.9762C14.9876 21.994 14.2578 22.0017 13.5281 21.9992L12.7821 22.0002H11.4731C10.7434 22.0027 10.0136 21.995 9.28409 21.9772L9.09009 21.9712C8.8527 21.9626 8.61536 21.9526 8.37809 21.9412C7.31409 21.8912 6.58809 21.7212 5.95009 21.4752C5.28277 21.2246 4.67833 20.8311 4.17909 20.3222C3.67013 19.8225 3.27631 19.2178 3.02509 18.5502C2.77809 17.9132 2.61009 17.1872 2.56009 16.1232C2.54895 15.8859 2.53895 15.6486 2.53009 15.4112L2.52509 15.2172C2.50665 14.4877 2.49832 13.758 2.50009 13.0282V10.9722C2.4973 10.2428 2.50463 9.51343 2.52209 8.78423L2.52909 8.59023C2.53709 8.36623 2.54709 8.14423 2.55909 7.87823C2.60909 6.81323 2.77709 6.08823 3.02409 5.45023C3.27546 4.78285 3.67005 4.17868 4.18009 3.68023C4.67898 3.17098 5.28305 2.7768 5.95009 2.52523C6.58809 2.27823 7.31309 2.11023 8.37809 2.06023L9.09009 2.03023L9.28409 2.02523C10.0133 2.0068 10.7427 1.99847 11.4721 2.00023L13.5281 2.00123ZM12.5001 7.00123C11.8376 6.99186 11.1798 7.11425 10.5651 7.3613C9.95029 7.60834 9.39074 7.97511 8.91893 8.44029C8.44713 8.90546 8.07249 9.45977 7.81678 10.071C7.56106 10.6822 7.42938 11.3382 7.42938 12.0007C7.42938 12.6633 7.56106 13.3192 7.81678 13.9305C8.07249 14.5417 8.44713 15.096 8.91893 15.5612C9.39074 16.0264 9.95029 16.3931 10.5651 16.6402C11.1798 16.8872 11.8376 17.0096 12.5001 17.0002C13.8262 17.0002 15.0979 16.4734 16.0356 15.5358C16.9733 14.5981 17.5001 13.3263 17.5001 12.0002C17.5001 10.6741 16.9733 9.40238 16.0356 8.4647C15.0979 7.52701 13.8262 7.00123 12.5001 7.00123ZM12.5001 9.00123C12.8986 8.99389 13.2946 9.06603 13.6649 9.21344C14.0352 9.36085 14.3724 9.58057 14.6569 9.85978C14.9413 10.139 15.1673 10.4721 15.3215 10.8396C15.4758 11.2071 15.5553 11.6016 15.5554 12.0002C15.5554 12.3988 15.4761 12.7934 15.3219 13.1609C15.1678 13.5285 14.9419 13.8617 14.6576 14.141C14.3732 14.4203 14.0361 14.6401 13.6658 14.7876C13.2955 14.9352 12.8996 15.0074 12.5011 15.0002C11.7054 15.0002 10.9424 14.6842 10.3798 14.1216C9.81716 13.5589 9.50109 12.7959 9.50109 12.0002C9.50109 11.2046 9.81716 10.4415 10.3798 9.87891C10.9424 9.3163 11.7054 9.00023 12.5011 9.00023L12.5001 9.00123ZM17.7501 5.50123C17.4275 5.51414 17.1224 5.65138 16.8987 5.8842C16.675 6.11702 16.5501 6.42736 16.5501 6.75023C16.5501 7.0731 16.675 7.38344 16.8987 7.61626C17.1224 7.84908 17.4275 7.98632 17.7501 7.99923C18.0816 7.99923 18.3996 7.86753 18.634 7.63311C18.8684 7.39869 19.0001 7.08075 19.0001 6.74923C19.0001 6.41771 18.8684 6.09977 18.634 5.86535C18.3996 5.63093 18.0816 5.49923 17.7501 5.49923V5.50123Z" fill="#FFED00"/>
</svg>
