<svg width="40" height="34" viewBox="0 0 40 34" fill="none" xmlns="http://www.w3.org/2000/svg">
<g id="Quote mark" clip-path="url(#clip0_42_136)">
<path id="&#226;&#128;&#156;" opacity="0.2" fill-rule="evenodd" clip-rule="evenodd" d="M39.8246 5.31019C33.8598 8.26032 30.8774 11.7267 30.8774 15.7093C33.4198 16.0043 35.5221 17.0492 37.1844 18.8438C38.8468 20.6385 39.6779 22.7158 39.6779 25.0759C39.6779 27.5835 38.8712 29.6978 37.2578 31.4187C35.6443 33.1396 33.6153 34 31.1707 34C28.4328 34 26.0616 32.8814 24.057 30.6443C22.0524 28.4071 21.0501 25.6905 21.0501 22.4946C21.0501 12.9067 26.3793 5.40856 37.0378 0L39.8246 5.31019ZM18.7744 5.31019C12.7607 8.26032 9.75391 11.7267 9.75391 15.7093C12.3452 16.0043 14.472 17.0492 16.1343 18.8438C17.7966 20.6385 18.6278 22.7158 18.6278 25.0759C18.6278 27.5835 17.8088 29.6978 16.171 31.4187C14.5331 33.1396 12.4919 34 10.0473 34C7.30931 34 4.9503 32.8814 2.97018 30.6443C0.990049 28.4071 0 25.6905 0 22.4946C0 12.9067 5.30471 5.40856 15.9143 0L18.7744 5.31019Z" fill="#0F70B7"/>
</g>
<defs>
<clipPath id="clip0_42_136">
<rect width="40" height="34" fill="white"/>
</clipPath>
</defs>
</svg>
